 <svg version="1.0" xmlns="http://www.w3.org/2000/svg"  width="900.000000pt" height="321.000000pt" viewBox="0 0 900.000000 321.000000"  preserveAspectRatio="xMidYMid meet">  <g transform="translate(0.000000,321.000000) scale(0.100000,-0.100000)" fill="#000000" stroke="none"> <path d="M675 2668 c-11 -6 -27 -15 -35 -20 -8 -4 -24 -12 -35 -17 -22 -10 -119 -92 -149 -125 -77 -87 -136 -189 -177 -306 -34 -96 -32 -235 3 -305 30 -58 57 -89 114 -133 49 -38 120 -53 130 -28 7 18 5 23 -30 81 -13 22 -32 77 -42 123 -16 79 -16 88 0 180 19 108 39 170 80 254 32 63 123 171 137 162 5 -3 9 -284 9 -683 0 -630 -1 -685 -20 -784 -10 -59 -24 -116 -30 -126 -15 -30 -12 -71 6 -78 41 -15 164 88 201 168 71 152 73 177 73 927 l0 644 -29 25 c-53 47 -157 68 -206 41z"/> <path d="M3017 2662 c-14 -15 -19 -50 -25 -168 l-7 -149 -110 4 c-105 3 -111 2 -131 -20 -24 -26 -36 -92 -23 -126 8 -22 14 -23 121 -23 62 0 119 -4 127 -9 12 -8 13 -52 7 -273 -4 -144 -10 -279 -15 -298 -20 -88 -124 -252 -150 -236 -6 4 -11 22 -11 39 0 37 -18 99 -42 142 -21 39 -81 95 -193 178 -128 96 -119 85 -100 113 116 177 125 273 29 304 -98 33 -226 -51 -268 -173 -22 -67 -20 -86 16 -156 30 -59 31 -63 16 -89 -8 -15 -30 -53 -48 -86 -17 -32 -44 -79 -59 -105 -15 -25 -30 -53 -34 -61 -31 -62 -126 -188 -148 -195 -10 -4 -27 -2 -37 4 -28 15 -34 110 -26 447 l7 290 -44 35 c-71 55 -103 69 -161 69 -46 0 -62 -5 -101 -33 -59 -42 -113 -113 -157 -207 -12 -25 -27 -56 -34 -70 -7 -14 -21 -52 -32 -85 -10 -33 -29 -76 -42 -95 l-23 -34 1 229 c1 127 -1 237 -4 245 -9 22 -85 50 -137 50 l-46 0 -7 -77 c-9 -111 -7 -840 3 -892 14 -68 38 -86 122 -86 79 0 89 7 89 68 0 20 7 65 16 100 22 88 44 167 56 202 5 17 14 44 18 60 17 60 42 119 88 212 69 138 69 137 116 190 62 67 67 57 55 -102 -17 -208 -14 -498 4 -578 17 -75 54 -132 95 -148 36 -14 107 -4 146 20 57 36 189 187 219 251 4 8 16 29 27 45 11 17 24 39 30 50 6 11 19 34 30 50 11 17 24 39 30 50 6 11 19 34 30 50 11 17 24 40 30 53 16 37 45 25 127 -52 111 -105 151 -196 123 -282 -20 -63 -46 -84 -103 -84 -41 0 -59 7 -108 40 -82 56 -102 53 -153 -24 -61 -91 -9 -141 176 -172 124 -20 221 -2 339 62 32 17 156 147 170 177 19 44 66 119 75 120 5 1 10 -14 12 -33 4 -42 34 -142 58 -190 48 -99 148 -153 249 -134 52 9 153 109 189 187 15 31 31 57 36 57 4 0 24 -33 43 -72 63 -128 127 -172 252 -172 67 0 88 4 131 26 52 28 114 84 142 131 18 30 42 36 42 11 0 -39 50 -107 105 -142 33 -22 52 -26 111 -26 61 0 77 3 114 27 23 16 55 51 72 78 l31 49 66 -69 c38 -39 80 -73 96 -78 17 -4 64 -8 105 -7 86 1 136 22 203 86 52 49 67 49 67 0 0 -36 -7 -45 -117 -148 -275 -257 -332 -339 -333 -471 0 -96 49 -172 145 -220 67 -35 196 -36 267 -4 70 32 146 107 174 171 3 8 12 29 20 47 8 17 14 39 14 50 0 10 7 40 15 67 11 37 15 104 15 281 l0 231 56 70 c81 101 149 203 199 299 14 28 30 57 35 65 5 8 24 47 41 85 17 39 38 82 45 97 8 14 14 33 14 41 0 8 9 26 21 41 20 25 25 27 93 24 l71 -3 -2 -55 c-2 -30 -9 -75 -15 -100 -18 -62 -17 -351 0 -410 19 -63 41 -109 74 -152 56 -72 162 -111 244 -89 47 13 118 70 141 114 l16 31 46 -51 c73 -80 111 -98 206 -97 67 0 88 4 134 28 55 28 105 73 136 119 25 38 43 33 64 -16 23 -53 91 -114 145 -128 90 -24 174 9 231 91 32 47 45 44 45 -11 0 -25 7 -46 19 -58 24 -24 116 -37 174 -25 l42 9 7 85 c4 47 12 141 18 210 6 69 17 145 24 170 61 202 108 314 128 308 9 -3 15 -35 19 -94 20 -273 30 -387 35 -395 3 -5 9 -34 14 -65 15 -94 77 -154 157 -154 64 1 76 18 80 112 5 111 38 295 74 403 49 148 62 175 83 175 8 0 10 -30 7 -97 -5 -135 16 -374 40 -454 37 -123 112 -202 206 -215 74 -9 125 9 171 61 65 74 113 264 78 310 -24 32 -46 8 -68 -70 -25 -86 -49 -134 -81 -159 -24 -18 -26 -18 -54 -1 -77 45 -96 161 -92 538 l4 288 -35 29 c-19 16 -42 30 -50 30 -8 0 -24 7 -34 15 -29 22 -119 20 -137 -2 -24 -29 -79 -155 -79 -181 0 -10 -4 -22 -9 -28 -6 -5 -14 -27 -20 -49 -5 -22 -20 -74 -31 -115 -12 -41 -25 -94 -28 -118 -4 -23 -11 -43 -17 -43 -13 0 -22 95 -25 256 -4 202 -15 237 -92 276 -46 23 -130 25 -152 4 -15 -16 -76 -138 -76 -155 0 -5 -6 -24 -14 -42 -8 -18 -24 -66 -37 -106 -32 -105 -42 -81 -40 91 1 79 -3 155 -8 169 -12 33 -63 53 -136 53 l-60 0 -6 -115 c-4 -63 -7 -211 -8 -328 -1 -223 -8 -273 -47 -359 -36 -79 -79 -123 -118 -123 -39 0 -60 20 -82 80 -15 39 -17 93 -15 417 l1 373 -23 14 c-34 21 -121 40 -151 32 -15 -4 -29 -14 -32 -24 -3 -9 -8 -23 -10 -30 -3 -9 -20 0 -51 26 -48 40 -123 72 -167 72 -13 0 -48 -8 -77 -17 -63 -21 -151 -103 -185 -174 -38 -78 -54 -117 -54 -131 0 -7 -7 -31 -14 -53 -15 -43 -23 -222 -17 -386 3 -79 0 -101 -15 -125 -36 -59 -56 -74 -95 -74 -129 0 -168 294 -83 622 33 127 15 210 -48 223 -38 9 -144 -2 -221 -21 -32 -8 -62 -12 -67 -9 -6 3 -10 30 -10 60 0 47 -3 56 -31 79 -49 41 -134 31 -182 -22 -21 -23 -47 -96 -47 -132 0 -15 15 -50 34 -77 34 -49 34 -50 20 -99 -31 -116 -83 -233 -159 -362 -33 -56 -66 -102 -73 -102 -11 0 -13 66 -12 348 1 191 -1 355 -5 364 -7 17 -94 48 -135 48 -32 0 -60 -18 -71 -47 l-10 -26 -37 35 c-147 140 -342 77 -446 -144 -61 -130 -77 -221 -76 -431 1 -173 0 -186 -21 -223 -36 -63 -59 -84 -94 -84 -99 0 -121 116 -110 567 8 331 12 313 -72 338 -73 22 -108 19 -127 -10 -21 -32 -38 -32 -76 4 -32 29 -113 61 -155 61 -58 0 -130 -35 -185 -90 -109 -109 -153 -241 -176 -525 -9 -103 -53 -203 -120 -269 -61 -60 -94 -62 -127 -8 -48 76 -56 230 -37 672 8 163 14 237 23 242 7 4 73 8 147 8 l136 0 17 29 c25 42 22 89 -5 101 -13 6 -86 13 -163 18 l-140 7 3 141 3 141 -26 17 c-29 19 -122 46 -159 46 -13 0 -30 -8 -39 -18z m979 -709 c14 -9 37 -39 52 -67 26 -50 27 -55 26 -236 0 -192 -10 -251 -58 -347 -21 -40 -88 -101 -120 -109 -30 -7 -83 22 -106 58 -43 69 -52 118 -53 293 0 219 24 312 102 391 30 29 41 34 83 34 28 0 59 -7 74 -17z m1030 -15 c52 -56 67 -130 61 -299 -6 -174 -32 -289 -82 -363 -25 -37 -92 -86 -118 -86 -28 0 -84 45 -104 83 -42 81 -54 273 -28 427 32 189 89 270 191 270 44 0 54 -4 80 -32z m1750 10 c38 -44 51 -74 69 -163 28 -144 10 -315 -49 -465 -24 -60 -98 -129 -140 -130 -30 0 -85 39 -103 73 -50 98 -65 293 -34 457 21 115 49 180 93 220 28 26 40 30 88 30 46 0 60 -4 76 -22z m-1656 -1090 c0 -98 -24 -274 -48 -348 -11 -34 -31 -69 -54 -92 -34 -34 -43 -38 -91 -38 -46 0 -57 4 -83 31 -27 28 -29 36 -28 102 2 60 7 82 34 132 18 33 52 85 75 115 57 74 175 191 186 184 5 -3 9 -41 9 -86z"/> </g> </svg> 